<svg width="300" height="300" xmlns="http://www.w3.org/2000/svg">
  <defs>
    <pattern id="ocean-waves" x="0" y="0" width="300" height="300" patternUnits="userSpaceOnUse">
      <!-- Base ocean color - light teal -->
      <rect width="300" height="300" fill="#6BB5C1"/>

      <!-- Seamlessly tiling organic wave shapes -->
      <!-- These curves connect at boundaries for proper tessellation -->

      <!-- Large flowing wave forms -->
      <path d="M0,50 C30,30 50,70 80,60 C110,50 130,80 150,70 C170,60 190,90 220,80 C250,70 270,100 300,90 L300,110 C270,120 250,90 220,100 C190,110 170,80 150,90 C130,100 110,70 80,80 C50,90 30,60 0,70 Z"
            fill="#FFFFFF" opacity="0.15"/>

      <path d="M0,130 C40,110 60,150 100,140 C140,130 160,170 200,160 C240,150 260,190 300,180 L300,200 C260,210 240,170 200,180 C160,190 140,150 100,160 C60,170 40,130 0,150 Z"
            fill="#FFFFFF" opacity="0.12"/>

      <path d="M0,220 C35,200 55,240 90,230 C125,220 145,260 180,250 C215,240 235,280 270,270 C285,265 292,282 300,275 L300,0 C285,7 270,0 270,15 C235,25 215,0 180,10 C145,20 125,0 90,10 C55,20 35,0 0,5 Z"
            fill="#FFFFFF" opacity="0.13"/>

      <!-- Flowing contour lines -->
      <path d="M0,40 C25,25 40,50 70,42 C100,34 115,58 145,52 C175,46 190,70 220,64 C250,58 265,82 300,76 M0,56 C25,41 40,66 70,58 C100,50 115,74 145,68 C175,62 190,86 220,80 C250,74 265,98 300,92"
            stroke="#FFFFFF" stroke-width="1.5" fill="none" opacity="0.4"/>

      <path d="M0,115 C30,100 50,130 85,120 C120,110 140,145 175,135 C210,125 230,160 265,150 C280,145 290,158 300,153 M0,131 C30,116 50,146 85,136 C120,126 140,161 175,151 C210,141 230,176 265,166 C280,161 290,174 300,169"
            stroke="#FFFFFF" stroke-width="1.5" fill="none" opacity="0.4"/>

      <path d="M0,190 C35,175 50,205 90,195 C130,185 150,220 190,210 C230,200 250,235 290,225 M0,206 C35,191 50,221 90,211 C130,201 150,236 190,226 C230,216 250,251 290,241 M0,222 C35,207 50,237 90,227 C130,217 150,252 190,242 C230,232 250,267 290,257"
            stroke="#FFFFFF" stroke-width="1.2" fill="none" opacity="0.35"/>

      <!-- Wrapping curves that connect top to bottom -->
      <path d="M0,280 C20,270 40,295 70,285 C100,275 120,300 150,295 C180,290 200,305 230,300 C260,295 280,310 300,305 M0,4 C20,14 40,0 70,10 C100,20 120,5 150,10 C180,15 200,0 230,5 C260,10 280,0 300,0"
            stroke="#FFFFFF" stroke-width="1.8" fill="none" opacity="0.45"/>

      <!-- Small detail waves -->
      <path d="M0,85 C15,78 25,88 40,83 C55,78 65,90 80,85 C95,80 105,92 120,87 C135,82 145,94 160,89 C175,84 185,96 200,91 C215,86 225,98 240,93 C255,88 265,100 280,95 C290,91 297,99 300,96"
            stroke="#FFFFFF" stroke-width="1" fill="none" opacity="0.3"/>

      <path d="M0,165 C12,159 22,168 35,164 C48,160 58,171 71,167 C84,163 94,174 107,170 C120,166 130,177 143,173 C156,169 166,180 179,176 C192,172 202,183 215,179 C228,175 238,186 251,182 C264,178 274,189 287,185 C293,183 297,188 300,186"
            stroke="#FFFFFF" stroke-width="0.9" fill="none" opacity="0.28"/>

      <path d="M0,245 C18,238 28,250 48,244 C68,238 78,252 98,246 C118,240 128,254 148,248 C168,242 178,256 198,250 C218,244 228,258 248,252 C268,246 278,260 300,254"
            stroke="#FFFFFF" stroke-width="1.1" fill="none" opacity="0.32"/>
    </pattern>
  </defs>

  <rect width="100%" height="100%" fill="url(#ocean-waves)"/>
</svg>
